<svg xmlns="http://www.w3.org/2000/svg" width="1200" height="630" viewBox="0 0 1200 630" role="img" aria-labelledby="title desc">
  <title id="title">12 Questions Before You Compare Handyman Estimates</title>
  <desc id="desc">Big Iron Construction homeowner estimate checklist social preview.</desc>
  <defs>
    <linearGradient id="paper" x1="0" y1="0" x2="1" y2="1">
      <stop offset="0" stop-color="#f8efdf"/>
      <stop offset="1" stop-color="#e7d1b3"/>
    </linearGradient>
    <linearGradient id="rust" x1="0" y1="0" x2="1" y2="1">
      <stop offset="0" stop-color="#b85a25"/>
      <stop offset="1" stop-color="#7c3914"/>
    </linearGradient>
    <filter id="shadow" x="-20%" y="-20%" width="140%" height="140%">
      <feDropShadow dx="0" dy="18" stdDeviation="20" flood-color="#241a12" flood-opacity=".16"/>
    </filter>
  </defs>
  <rect width="1200" height="630" fill="url(#paper)"/>
  <circle cx="1084" cy="48" r="235" fill="#384332" opacity=".11"/>
  <circle cx="48" cy="610" r="265" fill="#b85a25" opacity=".11"/>
  <path d="M0 0h24v630H0z" fill="url(#rust)"/>

  <g transform="translate(78 62)">
    <rect width="1044" height="506" rx="30" fill="#fbf5ea" stroke="#241a12" stroke-opacity=".14" filter="url(#shadow)"/>
    <g transform="translate(54 45)">
      <image href="big-iron-logo.png" x="0" y="0" width="86" height="80" preserveAspectRatio="xMidYMid meet"/>
      <text x="108" y="34" fill="#241a12" font-family="Arial, Helvetica, sans-serif" font-size="25" font-weight="700" letter-spacing="1.6">BIG IRON CONSTRUCTION</text>
      <text x="108" y="67" fill="#6d5947" font-family="Arial, Helvetica, sans-serif" font-size="20">Free homeowner resource · no email</text>
    </g>

    <g transform="translate(54 174)">
      <rect width="220" height="54" rx="27" fill="url(#rust)"/>
      <text x="110" y="37" text-anchor="middle" fill="#fff" font-family="Arial, Helvetica, sans-serif" font-size="27" font-weight="800">12 QUESTIONS</text>
      <text x="0" y="111" fill="#241a12" font-family="Arial, Helvetica, sans-serif" font-size="54" font-weight="800">Before you compare</text>
      <text x="0" y="172" fill="#241a12" font-family="Arial, Helvetica, sans-serif" font-size="54" font-weight="800">handyman estimates.</text>
      <text x="0" y="224" fill="#6d5947" font-family="Arial, Helvetica, sans-serif" font-size="25">Scope · materials · timing · changes · payments · closeout</text>
    </g>

    <g transform="translate(807 170)">
      <rect width="182" height="236" rx="24" fill="#efe1cd" stroke="#b85a25" stroke-width="4"/>
      <rect x="48" y="-14" width="86" height="32" rx="14" fill="#384332"/>
      <g fill="none" stroke="#384332" stroke-width="6" stroke-linecap="round">
        <path d="M37 64l10 10 19-22M37 110l10 10 19-22M37 156l10 10 19-22"/>
        <path d="M82 64h62M82 110h62M82 156h62"/>
      </g>
      <text x="91" y="211" text-anchor="middle" fill="#7c3914" font-family="Arial, Helvetica, sans-serif" font-size="16" font-weight="700">COMPARE THE SCOPE</text>
    </g>
  </g>
</svg>
