<svg xmlns="http://www.w3.org/2000/svg" viewBox="0 0 1200 900" role="img" aria-labelledby="title desc">
  <title id="title">Project visit illustration</title>
  <desc id="desc">Stylized residential project visit with truck, worker, and home outline.</desc>
  <rect width="1200" height="900" fill="#f4ebde"/>
  <rect y="670" width="1200" height="230" fill="#d0ab83"/>
  <polygon points="180,390 420,210 660,390" fill="#17352b"/>
  <rect x="240" y="380" width="360" height="250" rx="20" fill="#fffaf2" stroke="#8f3e18" stroke-width="8"/>
  <rect x="300" y="450" width="90" height="90" rx="14" fill="#dfe7e2"/>
  <rect x="450" y="430" width="90" height="200" rx="14" fill="#cb5f2d"/>
  <rect x="700" y="500" width="320" height="110" rx="22" fill="#17352b"/>
  <rect x="760" y="430" width="150" height="90" rx="18" fill="#4b7b5f"/>
  <circle cx="790" cy="640" r="48" fill="#171412"/>
  <circle cx="940" cy="640" r="48" fill="#171412"/>
  <circle cx="790" cy="640" r="22" fill="#f4ebde"/>
  <circle cx="940" cy="640" r="22" fill="#f4ebde"/>
  <circle cx="650" cy="520" r="36" fill="#cb5f2d"/>
  <rect x="625" y="555" width="50" height="105" rx="16" fill="#8f3e18"/>
  <line x1="625" y1="585" x2="585" y2="640" stroke="#8f3e18" stroke-width="16" stroke-linecap="round"/>
  <line x1="675" y1="585" x2="715" y2="640" stroke="#8f3e18" stroke-width="16" stroke-linecap="round"/>
  <text x="600" y="815" text-anchor="middle" font-family="Arial, sans-serif" font-size="54" font-weight="700" fill="#171412">Project Visit</text>
</svg>
